<svg id="Group_24" data-name="Group 24" xmlns="http://www.w3.org/2000/svg" xmlns:xlink="http://www.w3.org/1999/xlink" viewBox="0 0 134.594 38.634">
  <defs>
    <style>
      .cls-1 {
        fill: #0067b1;
      }

      .cls-2 {
        fill: #4f4f4f;
      }

      .cls-3 {
        fill: url(#linear-gradient);
      }
    </style>
    <linearGradient id="linear-gradient" y1="0.5" x2="1.001" y2="0.5" gradientUnits="objectBoundingBox">
      <stop offset="0" stop-color="#04396c"/>
      <stop offset="1" stop-color="#0067b1"/>
    </linearGradient>
  </defs>
  <g id="Group_17" data-name="Group 17" transform="translate(45.928 5.935)">
    <path id="Path_122" data-name="Path 122" class="cls-1" d="M166.82,37.042a5.925,5.925,0,0,1-1.22-3.966l3.106-.471a5.017,5.017,0,0,0,.388,2.246,1.141,1.141,0,0,0,1.054.666c.61,0,.915-.388.915-1.193a2.834,2.834,0,0,0-.444-1.636,6.437,6.437,0,0,0-1.359-1.47l-1.414-1.248a8.176,8.176,0,0,1-1.636-1.886,4.741,4.741,0,0,1-.555-2.385,4.137,4.137,0,0,1,1.22-3.189,4.787,4.787,0,0,1,3.384-1.109c1.553,0,2.607.444,3.162,1.359a6.483,6.483,0,0,1,.888,3.3l-3.106.388a7.663,7.663,0,0,0-.222-1.83.788.788,0,0,0-.832-.555.837.837,0,0,0-.721.388,1.584,1.584,0,0,0-.25.887,2.438,2.438,0,0,0,.388,1.414,7.931,7.931,0,0,0,1.193,1.276l1.359,1.193A9.684,9.684,0,0,1,174,31.44a5.231,5.231,0,0,1,.666,2.69,4.175,4.175,0,0,1-.527,2.108,3.886,3.886,0,0,1-1.5,1.5,4.494,4.494,0,0,1-2.246.555A4.552,4.552,0,0,1,166.82,37.042Z" transform="translate(-165.6 -21.4)"/>
    <path id="Path_123" data-name="Path 123" class="cls-1" d="M207.1,22.3h5.519a4.143,4.143,0,0,1,3.245,1.22,5.147,5.147,0,0,1,1.082,3.522q0,2.621-1.248,3.661A5.3,5.3,0,0,1,212.2,31.73h-1.47v6.961H207.1Zm4.826,6.906a1.417,1.417,0,0,0,1.276-.5,3.275,3.275,0,0,0,.305-1.692,3.363,3.363,0,0,0-.305-1.609c-.194-.361-.638-.527-1.3-.527h-1.193v4.354h1.22Z" transform="translate(-195.59 -22.05)"/>
    <path id="Path_124" data-name="Path 124" class="cls-1" d="M250.4,22.3h7.377v2.468h-3.744v4.077h2.857v2.524h-2.857v4.909h3.8v2.441h-7.405V22.3Z" transform="translate(-226.881 -22.05)"/>
    <path id="Path_125" data-name="Path 125" class="cls-1" d="M287.137,36.948A6.4,6.4,0,0,1,286,32.9V26.991a6.465,6.465,0,0,1,1.109-4.1,4.669,4.669,0,0,1,3.8-1.387,4.527,4.527,0,0,1,3.633,1.248,5.167,5.167,0,0,1,1.082,3.494v1.414H292.1V26.021a4.179,4.179,0,0,0-.194-1.47.939.939,0,0,0-.971-.5c-.527,0-.86.166-1,.527a3.65,3.65,0,0,0-.25,1.5v7.71a3.65,3.65,0,0,0,.25,1.5,1.022,1.022,0,0,0,1,.527.917.917,0,0,0,.971-.527,4.049,4.049,0,0,0,.222-1.5v-1.72h3.55v1.414a5.484,5.484,0,0,1-1.082,3.605,4.516,4.516,0,0,1-3.633,1.276A4.616,4.616,0,0,1,287.137,36.948Z" transform="translate(-252.608 -21.472)"/>
    <path id="Path_126" data-name="Path 126" class="cls-1" d="M330.724,24.99H328.2V22.3h8.653v2.69h-2.5v13.7h-3.633Z" transform="translate(-283.104 -22.05)"/>
    <path id="Path_127" data-name="Path 127" class="cls-1" d="M368.9,22.3h4.521a7.146,7.146,0,0,1,4.077.943,3.855,3.855,0,0,1,1.387,3.384,6.738,6.738,0,0,1-.416,2.607,3.038,3.038,0,0,1-1.581,1.525l2.246,7.932H375.39l-1.8-7.35h-1.026v7.35h-3.633V22.3Zm4.632,6.961a1.779,1.779,0,0,0,1.525-.582,2.959,2.959,0,0,0,.444-1.72,2.721,2.721,0,0,0-.416-1.664,1.66,1.66,0,0,0-1.387-.555h-1.165v4.548h1Z" transform="translate(-312.517 -22.05)"/>
    <path id="Path_128" data-name="Path 128" class="cls-1" d="M415.878,22.3h4.132l3.051,16.391h-3.328l-.555-3.467h-2.413l-.555,3.467H412.8Zm2.94,10.761-.86-6.407-.86,6.407Z" transform="translate(-344.241 -22.05)"/>
    <path id="Path_129" data-name="Path 129" class="cls-1" d="M458.6,22.3h3.633V36.25h3.772v2.441h-7.377V22.3Z" transform="translate(-377.339 -22.05)"/>
  </g>
  <g id="Group_18" data-name="Group 18" transform="translate(45.29 26.625)">
    <path id="Path_130" data-name="Path 130" class="cls-2" d="M163.3,100.77c0-2.912,2-4.77,5.131-4.77a5.838,5.838,0,0,1,3.384.971l-.527,1.331a5.039,5.039,0,0,0-2.773-.832,3.194,3.194,0,0,0-3.522,3.3c0,2.025,1.387,3.3,3.633,3.3a5.056,5.056,0,0,0,2.94-.915l.582,1.359a6.326,6.326,0,0,1-3.633,1.026C165.269,105.485,163.3,103.682,163.3,100.77Z" transform="translate(-163.3 -96)"/>
    <path id="Path_131" data-name="Path 131" class="cls-2" d="M209.7,100.743c0-2.857,2.025-4.743,5.02-4.743,3.023,0,5.048,1.914,5.048,4.743s-2.025,4.743-5.048,4.743S209.7,103.6,209.7,100.743Zm8.376,0a3.356,3.356,0,1,0-3.356,3.3A3.159,3.159,0,0,0,218.076,100.743Z" transform="translate(-196.831 -96)"/>
    <path id="Path_132" data-name="Path 132" class="cls-2" d="M273.383,105.708h-1.636V98.441l-3.3,7.266h-1.193l-3.3-7.294v7.266H262.4V96.5h2.33l3.162,7.017,3.162-7.017h2.33Z" transform="translate(-234.915 -96.361)"/>
    <path id="Path_133" data-name="Path 133" class="cls-2" d="M327.614,99.412c0,1.886-1.165,2.912-3.273,2.912h-3.605v3.356H319.1V96.5h5.214C326.477,96.5,327.614,97.526,327.614,99.412Zm-1.664,0c0-1.026-.582-1.5-1.83-1.5h-3.356v3.023h3.356C325.368,100.937,325.95,100.438,325.95,99.412Z" transform="translate(-275.89 -96.361)"/>
    <path id="Path_134" data-name="Path 134" class="cls-2" d="M363.7,102.324V96.5h1.636v5.547c0,1.553.915,2.33,2.718,2.33s2.69-.777,2.69-2.33V96.5H372.3v5.824c0,2.246-1.553,3.522-4.3,3.522S363.7,104.6,363.7,102.324Z" transform="translate(-308.121 -96.361)"/>
    <path id="Path_135" data-name="Path 135" class="cls-2" d="M418.236,97.914h-3.55v7.793H413.05V97.914H409.5V96.5h8.736Z" transform="translate(-341.219 -96.361)"/>
    <path id="Path_136" data-name="Path 136" class="cls-2" d="M457.536,97.914v2.441h5.63v1.414h-5.63v2.524h6.517v1.414H455.9V96.5h8.154v1.414Z" transform="translate(-374.75 -96.361)"/>
  </g>
  <path id="Path_137" data-name="Path 137" class="cls-3" d="M16.724,0,0,9.651V28.982l16.724,9.651,16.724-9.651V9.651Zm13.59,27.152L16.751,35,9.624,30.9,21.549,24.24a2.8,2.8,0,0,1,1.442-.388c.166,0,.305.028.471.028h0a2.538,2.538,0,0,0,.471.028,2.968,2.968,0,1,0-2.912-3.578,3.106,3.106,0,0,1-.887,1.082L6.462,29.065,3.189,27.179v-15.7L16.751,3.633l6.934,3.994L12.508,14.006h0a3.03,3.03,0,0,1-1.5.416c-.166,0-.305-.028-.471-.028h0a2.538,2.538,0,0,0-.471-.028,2.968,2.968,0,1,0,2.912,3.578,2.888,2.888,0,0,1,.86-1.054L26.847,9.485l3.467,2v15.67Z"/>
</svg>
