<?xml version="1.0" encoding="UTF-8" standalone="no"?>
<svg
   xmlns:dc="http://purl.org/dc/elements/1.1/"
   xmlns:cc="http://creativecommons.org/ns#"
   xmlns:rdf="http://www.w3.org/1999/02/22-rdf-syntax-ns#"
   xmlns:svg="http://www.w3.org/2000/svg"
   xmlns="http://www.w3.org/2000/svg"
   xmlns:sodipodi="http://sodipodi.sourceforge.net/DTD/sodipodi-0.dtd"
   xmlns:inkscape="http://www.inkscape.org/namespaces/inkscape"
   id="Group_24"
   data-name="Group 24"
   viewBox="0 0 33.448003 38.633001"
   version="1.1"
   sodipodi:docname="logo_nowords.svg"
   width="33.448002"
   height="38.632999"
   inkscape:version="0.92.4 5da689c313, 2019-01-14">
  <metadata
     id="metadata3813">
    <rdf:RDF>
      <cc:Work
         rdf:about="">
        <dc:format>image/svg+xml</dc:format>
        <dc:type
           rdf:resource="http://purl.org/dc/dcmitype/StillImage" />
        <dc:title></dc:title>
      </cc:Work>
    </rdf:RDF>
  </metadata>
  <sodipodi:namedview
     pagecolor="#ffffff"
     bordercolor="#666666"
     borderopacity="1"
     objecttolerance="10"
     gridtolerance="10"
     guidetolerance="10"
     inkscape:pageopacity="0"
     inkscape:pageshadow="2"
     inkscape:window-width="1920"
     inkscape:window-height="1029"
     id="namedview3811"
     showgrid="false"
     inkscape:zoom="12.853471"
     inkscape:cx="-24.07638"
     inkscape:cy="12.846055"
     inkscape:window-x="0"
     inkscape:window-y="0"
     inkscape:window-maximized="1"
     inkscape:current-layer="Group_24" />
  <defs
     id="defs3790">
    <style
       id="style3783">
      .cls-1 {
        fill: #0067b1;
      }

      .cls-2 {
        fill: #4f4f4f;
      }

      .cls-3 {
        fill: url(#linear-gradient);
      }
    </style>
    <linearGradient
       id="linear-gradient"
       y1="17.973568"
       x2="35.983085"
       y2="17.973568"
       gradientUnits="userSpaceOnUse"
       gradientTransform="scale(0.93047747,1.0747171)"
       x1="0">
      <stop
         offset="0"
         stop-color="#04396c"
         id="stop3785" />
      <stop
         offset="1"
         stop-color="#0067b1"
         id="stop3787" />
    </linearGradient>
  </defs>
  <path
     id="Path_137"
     data-name="Path 137"
     class="cls-3"
     d="M 16.724,0 0,9.651 v 19.331 l 16.724,9.651 16.724,-9.651 V 9.651 Z M 30.314,27.152 16.751,35 9.624,30.9 21.549,24.24 a 2.8,2.8 0 0 1 1.442,-0.388 c 0.166,0 0.305,0.028 0.471,0.028 v 0 a 2.538,2.538 0 0 0 0.471,0.028 2.968,2.968 0 1 0 -2.912,-3.578 3.106,3.106 0 0 1 -0.887,1.082 L 6.462,29.065 3.189,27.179 v -15.7 l 13.562,-7.846 6.934,3.994 -11.177,6.379 v 0 a 3.03,3.03 0 0 1 -1.5,0.416 c -0.166,0 -0.305,-0.028 -0.471,-0.028 v 0 a 2.538,2.538 0 0 0 -0.471,-0.028 2.968,2.968 0 1 0 2.912,3.578 2.888,2.888 0 0 1 0.86,-1.054 l 13.009,-7.405 3.467,2 v 15.67 z"
     inkscape:connector-curvature="0"
     style="fill:url(#linear-gradient)" />
</svg>
